#VRML V2.0 utf8
DEF TXFM_1 Transform {
  center 0 0 0
  rotation 0 0 1 0
  scale 1 1 1
  scaleOrientation 0 0 1 0
  translation 0 0 0
 children [
DEF TXFM_2 Transform {
  center 0 0 0
  rotation 0 0 1 0
  scale 1 1 1
  scaleOrientation 0 0 1 0
  translation 0 0 0
 children [
DEF TXFM_3 Transform {
  center 0 0 0
  rotation 0 0 1 0
  scale 1 1 1
  scaleOrientation 0 0 1 0
  translation 0 0 0
 children [
DEF SHAPE_1 Shape {
 appearance DEF APP_1 Appearance {
  material Material {
   ambientIntensity 0.11283861
   diffuseColor 0.89499998 0.89099997 0.81300002
   emissiveColor 0 0 0
   shininess 0.1
   specularColor 0.12 0.12 0.12
   transparency 0
} }
 geometry DEF FACE_1 IndexedFaceSet {
  coord DEF COORD_1 Coordinate { point [
  -0.13779528 -0.098425197 0.072834646,-0.12401575 -0.098425197 0.19685039,
  0.12401575 -0.098425197 0.19685039,0.13779528 -0.098425197 0.072834646] }
 coordIndex [
  2,1,0,-1,2,0,3,-1]
  normalPerVertex TRUE
  normal DEF NORM_1 Normal { vector [
  0 -1 0,0 -1 0,
  0 -1 0,0 -1 0] }
}
}
DEF SHAPE_2 Shape {
 appearance USE APP_1
 geometry DEF FACE_2 IndexedFaceSet {
  coord DEF COORD_2 Coordinate { point [
  -0.13779528 0.098425197 0.072834646,-0.13779528 0.073818898 0.072834646,
  -0.13779528 -0.073818898 0.072834646,-0.13779528 -0.098425197 0.072834646,
  -0.12401575 -0.098425197 0.19685039,-0.12401575 0.098425197 0.19685039] }
 coordIndex [
  4,2,3,-1,5,0,1,-1,5,1,2,-1,5,2,4,-1]
  normalPerVertex TRUE
  normal DEF NORM_2 Normal { vector [
  -0.99388373 0 0.11043153,-0.99388373 0 0.11043153,
  -0.99388373 0 0.11043153,-0.99388373 0 0.11043153,
  -0.99388373 0 0.11043153,-0.99388373 0 0.11043153] }
}
}
DEF SHAPE_3 Shape {
 appearance USE APP_1
 geometry DEF FACE_3 IndexedFaceSet {
  coord DEF COORD_3 Coordinate { point [
  -0.19094488 -0.098425197 0.0059055118,-0.18208661 -0.098425197 0.0059055118,
  -0.19094488 -0.098425197 0.072834646,-0.18208661 -0.098425197 0.072834646,
  -0.13779528 -0.098425197 0.072834646,0.13779528 -0.098425197 0.072834646,
  0.18208661 -0.098425197 0.072834646,0.19094488 -0.098425197 0.072834646,
  0.19094488 -0.098425197 0.0059055118,0.18208661 -0.098425197 0.0059055118] }
 coordIndex [
  3,0,1,-1,3,2,0,-1,4,3,1,-1,5,1,9,-1,5,4,1,-1,6,5,9,-1,7,9,8,-1,7,6,9,-1]
  normalPerVertex TRUE
  normal DEF NORM_3 Normal { vector [
  0 -1 0,0 -1 0,
  0 -1 0,0 -1 0,
  0 -1 0,0 -1 0,
  0 -1 0,0 -1 0,
  0 -1 0,0 -1 0] }
}
}
DEF SHAPE_4 Shape {
 appearance USE APP_1
 geometry DEF FACE_4 IndexedFaceSet {
  coord DEF COORD_4 Coordinate { point [
  -0.12401575 0.098425197 0.19685039,-0.12401575 -0.098425197 0.19685039,
  0.12401575 -0.098425197 0.19685039,0.12401575 0.098425197 0.19685039] }
 coordIndex [
  3,0,1,-1,3,1,2,-1]
  normalPerVertex TRUE
  normal DEF NORM_4 Normal { vector [
  0 0 1,0 0 1,
  0 0 1,0 0 1] }
}
}
DEF SHAPE_5 Shape {
 appearance USE APP_1
 geometry DEF FACE_5 IndexedFaceSet {
  coord DEF COORD_5 Coordinate { point [
  0.12401575 0.098425197 0.19685039,0.12401575 -0.098425197 0.19685039,
  0.13779528 -0.098425197 0.072834646,0.13779528 -0.073818898 0.072834646,
  0.13779528 0.073818898 0.072834646,0.13779528 0.098425197 0.072834646] }
 coordIndex [
  3,1,2,-1,4,0,1,-1,4,1,3,-1,5,0,4,-1]
  normalPerVertex TRUE
  normal DEF NORM_5 Normal { vector [
  0.99388373 0 0.11043153,0.99388373 0 0.11043153,
  0.99388373 0 0.11043153,0.99388373 0 0.11043153,
  0.99388373 0 0.11043153,0.99388373 0 0.11043153] }
}
}
DEF SHAPE_6 Shape {
 appearance USE APP_1
 geometry DEF FACE_6 IndexedFaceSet {
  coord DEF COORD_6 Coordinate { point [
  -0.18208661 0.098425197 0.072834646,-0.13779528 0.098425197 0.072834646,
  -0.18208661 0.073818898 0.072834646,-0.13779528 0.073818898 0.072834646] }
 coordIndex [
  1,0,2,-1,1,2,3,-1]
  normalPerVertex TRUE
  normal DEF NORM_6 Normal { vector [
  0 0 1,0 0 1,
  0 0 1,0 0 1] }
}
}
DEF SHAPE_7 Shape {
 appearance USE APP_1
 geometry DEF FACE_7 IndexedFaceSet {
  coord DEF COORD_7 Coordinate { point [
  -0.13779528 0.098425197 0.072834646,-0.12401575 0.098425197 0.19685039,
  0.12401575 0.098425197 0.19685039,0.13779528 0.098425197 0.072834646] }
 coordIndex [
  2,0,1,-1,2,3,0,-1]
  normalPerVertex TRUE
  normal DEF NORM_7 Normal { vector [
  0 1 0,0 1 0,
  0 1 0,0 1 0] }
}
}
DEF SHAPE_8 Shape {
 appearance DEF APP_2 Appearance {
  material Material {
   ambientIntensity 0.13400008
   diffuseColor 0.85900003 0.73799998 0.49599999
   emissiveColor 0 0 0
   shininess 0.1
   specularColor 0.12 0.12 0.12
   transparency 0
} }
 geometry DEF FACE_8 IndexedFaceSet {
  coord DEF COORD_8 Coordinate { point [
  -0.14370079 0.073818898 0.078740157,-0.14074803 0.073818898 0.077948969,
  -0.13858646 0.073818898 0.075787402,-0.13779528 0.073818898 0.072834646,
  -0.14370079 -0.073818898 0.078740157,-0.14074803 -0.073818898 0.077948969,
  -0.13858646 -0.073818898 0.075787402,-0.13779528 -0.073818898 0.072834646] }
 coordIndex [
  1,0,4,-1,1,4,5,-1,2,5,6,-1,2,1,5,-1,3,6,7,-1,3,2,6,-1]
  normalPerVertex TRUE
  normal DEF NORM_8 Normal { vector [
  0.25881905 0 0.96592583,0.42097392 0 0.90707274,
  0.81811048 0 0.57506107,0.96592583 0 0.25881905,
  0.25881905 0 0.96592583,0.57506107 0 0.81811048,
  0.90707274 0 0.42097392,0.96592583 0 0.25881905] }
}
}
DEF SHAPE_9 Shape {
 appearance USE APP_1
 geometry DEF FACE_9 IndexedFaceSet {
  coord DEF COORD_9 Coordinate { point [
  -0.18208661 -0.098425197 0.072834646,-0.18208661 -0.073818898 0.072834646,
  -0.13779528 -0.098425197 0.072834646,-0.13779528 -0.073818898 0.072834646] }
 coordIndex [
  3,1,0,-1,3,0,2,-1]
  normalPerVertex TRUE
  normal DEF NORM_9 Normal { vector [
  0 0 1,0 0 1,
  0 0 1,0 0 1] }
}
}
DEF SHAPE_10 Shape {
 appearance USE APP_2
 geometry DEF FACE_10 IndexedFaceSet {
  coord DEF COORD_10 Coordinate { point [
  -0.19094488 -0.098425197 0,-0.18208661 -0.098425197 0,
  -0.19685039 -0.098425197 0.0059055118,-0.19605921 -0.098425197 0.0029527559,
  -0.19389764 -0.098425197 0.00079118856,-0.19685039 -0.098425197 0.072834646,
  -0.19605921 -0.098425197 0.075787402,-0.19389764 -0.098425197 0.077948969,
  -0.19094488 -0.098425197 0.078740157,-0.18208661 -0.098425197 0.078740157,
  -0.18208661 -0.098425197 0.072834646,-0.19094488 -0.098425197 0.072834646,
  -0.19094488 -0.098425197 0.0059055118,-0.18208661 -0.098425197 0.0059055118] }
 coordIndex [
  12,2,3,-1,12,3,4,-1,12,4,0,-1,13,0,1,-1,13,12,0,-1,11,5,2,-1,11,6,5,-1,11,2,12,-1,
  7,6,11,-1,8,7,11,-1,9,11,10,-1,9,8,11,-1]
  normalPerVertex TRUE
  normal DEF NORM_10 Normal { vector [
  0 -1 0,0 -1 0,
  0 -1 0,0 -1 0,
  0 -1 0,0 -1 0,
  0 -1 0,0 -1 0,
  0 -1 0,0 -1 0,
  0 -1 0,0 -1 0,
  0 -1 0,0 -1 0] }
}
}
DEF SHAPE_11 Shape {
 appearance USE APP_1
 geometry DEF FACE_11 IndexedFaceSet {
  coord DEF COORD_11 Coordinate { point [
  -0.18208661 -0.098425197 0.0059055118,-0.18208661 -0.073818898 0.0059055118,
  0.18208661 -0.098425197 0.0059055118,0.18208661 -0.073818898 0.0059055118,
  0.13779528 -0.073818898 0.0059055118,0.13779528 0.073818898 0.0059055118,
  0.18208661 0.073818898 0.0059055118,0.18208661 0.098425197 0.0059055118,
  -0.18208661 0.098425197 0.0059055118,-0.18208661 0.073818898 0.0059055118,
  -0.13779528 0.073818898 0.0059055118,-0.13779528 -0.073818898 0.0059055118,
  0.068190977 0.078740157 0.0059055118,0.068190977 -0.078740157 0.0059055118,
  -0.068190977 0 0.0059055118] }
 coordIndex [
  11,0,1,-1,10,9,8,-1,10,14,11,-1,13,0,11,-1,13,11,14,-1,2,0,13,-1,2,13,4,-1,3,2,4,-1,
  12,14,10,-1,5,13,12,-1,5,4,13,-1,7,6,5,-1,7,5,12,-1,7,12,8,-1,12,10,8,-1]
  normalPerVertex TRUE
  normal DEF NORM_11 Normal { vector [
  0 0 -1,0 0 -1,
  0 0 -1,0 0 -1,
  0 0 -1,0 0 -1,
  0 0 -1,0 0 -1,
  0 0 -1,0 0 -1,
  0 0 -1,0 0 -1,
  0 0 -1,0 0 -1,
  0 0 -1] }
}
}
DEF SHAPE_12 Shape {
 appearance USE APP_2
 geometry DEF FACE_12 IndexedFaceSet {
  coord DEF COORD_12 Coordinate { point [
  0.18208661 -0.098425197 0,0.19094488 -0.098425197 0,
  0.18208661 -0.098425197 0.0059055118,0.19094488 -0.098425197 0.0059055118,
  0.19094488 -0.098425197 0.072834646,0.18208661 -0.098425197 0.072834646,
  0.18208661 -0.098425197 0.078740157,0.19094488 -0.098425197 0.078740157,
  0.19685039 -0.098425197 0.072834646,0.19605921 -0.098425197 0.075787402,
  0.19389764 -0.098425197 0.077948969,0.19685039 -0.098425197 0.0059055118,
  0.19605921 -0.098425197 0.0029527559,0.19389764 -0.098425197 0.00079118856] }
 coordIndex [
  3,0,1,-1,3,2,0,-1,3,1,13,-1,12,3,13,-1,11,3,12,-1,8,4,3,-1,8,3,11,-1,7,5,4,-1,
  7,6,5,-1,9,4,8,-1,10,7,4,-1,10,4,9,-1]
  normalPerVertex TRUE
  normal DEF NORM_12 Normal { vector [
  0 -1 0,0 -1 0,
  0 -1 0,0 -1 0,
  0 -1 0,0 -1 0,
  0 -1 0,0 -1 0,
  0 -1 0,0 -1 0,
  0 -1 0,0 -1 0,
  0 -1 0,0 -1 0] }
}
}
DEF SHAPE_13 Shape {
 appearance USE APP_1
 geometry DEF FACE_13 IndexedFaceSet {
  coord DEF COORD_13 Coordinate { point [
  0.13779528 -0.073818898 0.072834646,0.18208661 -0.073818898 0.072834646,
  0.13779528 -0.098425197 0.072834646,0.18208661 -0.098425197 0.072834646] }
 coordIndex [
  1,0,2,-1,1,2,3,-1]
  normalPerVertex TRUE
  normal DEF NORM_13 Normal { vector [
  0 0 1,0 0 1,
  0 0 1,0 0 1] }
}
}
DEF SHAPE_14 Shape {
 appearance USE APP_1
 geometry DEF FACE_14 IndexedFaceSet {
  coord DEF COORD_14 Coordinate { point [
  0.13779528 0.098425197 0.072834646,0.18208661 0.098425197 0.072834646,
  0.13779528 0.073818898 0.072834646,0.18208661 0.073818898 0.072834646] }
 coordIndex [
  1,0,2,-1,1,2,3,-1]
  normalPerVertex TRUE
  normal DEF NORM_14 Normal { vector [
  0 0 1,0 0 1,
  0 0 1,0 0 1] }
}
}
DEF SHAPE_15 Shape {
 appearance USE APP_2
 geometry DEF FACE_15 IndexedFaceSet {
  coord DEF COORD_15 Coordinate { point [
  0.13779528 -0.073818898 0.072834646,0.13779528 0.073818898 0.072834646,
  0.13858646 -0.073818898 0.075787402,0.14074803 -0.073818898 0.077948969,
  0.14370079 -0.073818898 0.078740157,0.14370079 0.073818898 0.078740157,
  0.13858646 0.073818898 0.075787402,0.14074803 0.073818898 0.077948969] }
 coordIndex [
  6,1,0,-1,6,0,2,-1,7,2,3,-1,7,6,2,-1,5,3,4,-1,5,7,3,-1]
  normalPerVertex TRUE
  normal DEF NORM_15 Normal { vector [
  -0.96592583 0 0.25881905,-0.96592583 0 0.25881905,
  -0.81811048 0 0.57506107,-0.42097392 0 0.90707274,
  -0.25881905 0 0.96592583,-0.25881905 0 0.96592583,
  -0.90707274 0 0.42097392,-0.57506107 0 0.81811048] }
}
}
DEF SHAPE_16 Shape {
 appearance USE APP_1
 geometry DEF FACE_16 IndexedFaceSet {
  coord DEF COORD_16 Coordinate { point [
  -0.19094488 0.098425197 0.0059055118,-0.18208661 0.098425197 0.0059055118,
  -0.19094488 0.098425197 0.072834646,-0.18208661 0.098425197 0.072834646,
  -0.13779528 0.098425197 0.072834646,0.13779528 0.098425197 0.072834646,
  0.18208661 0.098425197 0.072834646,0.19094488 0.098425197 0.072834646,
  0.19094488 0.098425197 0.0059055118,0.18208661 0.098425197 0.0059055118] }
 coordIndex [
  3,1,0,-1,3,0,2,-1,4,1,3,-1,5,9,1,-1,5,1,4,-1,6,9,5,-1,7,8,9,-1,7,9,6,-1]
  normalPerVertex TRUE
  normal DEF NORM_16 Normal { vector [
  0 1 0,0 1 0,
  0 1 0,0 1 0,
  0 1 0,0 1 0,
  0 1 0,0 1 0,
  0 1 0,0 1 0] }
}
}
DEF SHAPE_17 Shape {
 appearance USE APP_2
 geometry DEF FACE_17 IndexedFaceSet {
  coord DEF COORD_17 Coordinate { point [
  -0.18208661 0.073818898 0.078740157,-0.14370079 0.073818898 0.078740157,
  -0.18208661 0.073818898 0.072834646,-0.13779528 0.073818898 0.072834646,
  -0.14074803 0.073818898 0.077948969,-0.13858646 0.073818898 0.075787402] }
 coordIndex [
  1,2,0,-1,3,2,1,-1,5,1,4,-1,5,3,1,-1]
  normalPerVertex TRUE
  normal DEF NORM_17 Normal { vector [
  0 1 0,0 1 0,
  0 1 0,0 1 0,
  0 0 1,0 1 0] }
}
}
DEF SHAPE_18 Shape {
 appearance USE APP_2
 geometry DEF FACE_18 IndexedFaceSet {
  coord DEF COORD_18 Coordinate { point [
  -0.18208661 0.073818898 0.078740157,-0.18208661 0.073818898 0.072834646,
  -0.18208661 0.098425197 0.078740157,-0.18208661 0.098425197 0.072834646] }
 coordIndex [
  0,3,2,-1,0,1,3,-1]
  normalPerVertex TRUE
  normal DEF NORM_18 Normal { vector [
  1 0 0,1 0 0,
  1 0 0,1 0 0] }
}
}
DEF SHAPE_19 Shape {
 appearance USE APP_2
 geometry DEF FACE_19 IndexedFaceSet {
  coord DEF COORD_19 Coordinate { point [
  -0.18208661 -0.073818898 0.078740157,-0.18208661 -0.073818898 0.072834646,
  -0.14370079 -0.073818898 0.078740157,-0.14074803 -0.073818898 0.077948969,
  -0.13858646 -0.073818898 0.075787402,-0.13779528 -0.073818898 0.072834646] }
 coordIndex [
  2,4,3,-1,2,5,4,-1,1,5,2,-1,0,1,2,-1]
  normalPerVertex TRUE
  normal DEF NORM_19 Normal { vector [
  0 -1 0,0 -1 0,
  0 -1 0,0 0 1,
  0 -1 0,0 -1 0] }
}
}
DEF SHAPE_20 Shape {
 appearance USE APP_2
 geometry DEF FACE_20 IndexedFaceSet {
  coord DEF COORD_20 Coordinate { point [
  -0.19094488 0.098425197 0.078740157,-0.18208661 0.098425197 0.078740157,
  -0.19094488 -0.098425197 0.078740157,-0.18208661 -0.098425197 0.078740157,
  -0.18208661 -0.073818898 0.078740157,-0.14370079 -0.073818898 0.078740157,
  -0.14370079 0.073818898 0.078740157,-0.18208661 0.073818898 0.078740157] }
 coordIndex [
  4,2,3,-1,1,0,7,-1,6,4,5,-1,6,7,4,-1,0,2,4,-1,0,4,7,-1]
  normalPerVertex TRUE
  normal DEF NORM_20 Normal { vector [
  0 0 1,0 0 1,
  0 0 1,0 0 1,
  0 0 1,0 0 1,
  0 0 1,0 0 1] }
}
}
DEF SHAPE_21 Shape {
 appearance USE APP_2
 geometry DEF FACE_21 IndexedFaceSet {
  coord DEF COORD_21 Coordinate { point [
  -0.18208661 -0.073818898 0.078740157,-0.18208661 -0.098425197 0.078740157,
  -0.18208661 -0.073818898 0.072834646,-0.18208661 -0.098425197 0.072834646] }
 coordIndex [
  1,2,0,-1,1,3,2,-1]
  normalPerVertex TRUE
  normal DEF NORM_21 Normal { vector [
  1 0 0,1 0 0,
  1 0 0,1 0 0] }
}
}
DEF SHAPE_22 Shape {
 appearance USE APP_2
 geometry DEF FACE_22 IndexedFaceSet {
  coord DEF COORD_22 Coordinate { point [
  -0.19094488 0.098425197 0,-0.18208661 0.098425197 0,
  -0.19094488 -0.098425197 0,-0.18208661 -0.098425197 0,
  -0.18208661 -0.073818898 0,-0.14370079 -0.073818898 0,
  -0.14370079 0.073818898 0,-0.18208661 0.073818898 0] }
 coordIndex [
  4,3,2,-1,1,7,0,-1,6,5,4,-1,6,4,7,-1,0,4,2,-1,0,7,4,-1]
  normalPerVertex TRUE
  normal DEF NORM_22 Normal { vector [
  0 0 -1,0 0 -1,
  0 0 -1,0 0 -1,
  0 0 -1,0 0 -1,
  0 0 -1,0 0 -1] }
}
}
DEF SHAPE_23 Shape {
 appearance USE APP_2
 geometry DEF FACE_23 IndexedFaceSet {
  coord DEF COORD_23 Coordinate { point [
  -0.19685039 -0.098425197 0.0059055118,-0.19685039 0.098425197 0.0059055118,
  -0.19605921 0.098425197 0.0029527559,-0.19389764 0.098425197 0.00079118856,
  -0.19094488 0.098425197 0,-0.19094488 -0.098425197 0,
  -0.19605921 -0.098425197 0.0029527559,-0.19389764 -0.098425197 0.00079118856] }
 coordIndex [
  3,4,5,-1,3,5,7,-1,2,7,6,-1,2,3,7,-1,1,6,0,-1,1,2,6,-1]
  normalPerVertex TRUE
  normal DEF NORM_23 Normal { vector [
  -0.96592583 0 -0.25881905,-0.96592583 0 -0.25881905,
  -0.81811048 0 -0.57506107,-0.42097392 0 -0.90707274,
  -0.25881905 0 -0.96592583,-0.25881905 0 -0.96592583,
  -0.90707274 0 -0.42097392,-0.57506107 0 -0.81811048] }
}
}
DEF SHAPE_24 Shape {
 appearance USE APP_2
 geometry DEF FACE_24 IndexedFaceSet {
  coord DEF COORD_24 Coordinate { point [
  -0.18208661 -0.098425197 0.0059055118,-0.18208661 -0.073818898 0.0059055118,
  -0.18208661 -0.073818898 0,-0.18208661 -0.098425197 0] }
 coordIndex [
  0,2,1,-1,0,3,2,-1]
  normalPerVertex TRUE
  normal DEF NORM_24 Normal { vector [
  1 0 0,1 0 0,
  1 0 0,1 0 0] }
}
}
DEF SHAPE_25 Shape {
 appearance USE APP_2
 geometry DEF FACE_25 IndexedFaceSet {
  coord DEF COORD_25 Coordinate { point [
  -0.19685039 -0.098425197 0.0059055118,-0.19685039 -0.098425197 0.072834646,
  -0.19685039 0.098425197 0.0059055118,-0.19685039 0.098425197 0.072834646] }
 coordIndex [
  1,2,0,-1,1,3,2,-1]
  normalPerVertex TRUE
  normal DEF NORM_25 Normal { vector [
  -1 0 0,-1 0 0,
  -1 0 0,-1 0 0] }
}
}
DEF SHAPE_26 Shape {
 appearance USE APP_2
 geometry DEF FACE_26 IndexedFaceSet {
  coord DEF COORD_26 Coordinate { point [
  -0.19685039 -0.098425197 0.072834646,-0.19605921 -0.098425197 0.075787402,
  -0.19389764 -0.098425197 0.077948969,-0.19094488 -0.098425197 0.078740157,
  -0.19094488 0.098425197 0.078740157,-0.19685039 0.098425197 0.072834646,
  -0.19605921 0.098425197 0.075787402,-0.19389764 0.098425197 0.077948969] }
 coordIndex [
  6,0,1,-1,6,5,0,-1,7,1,2,-1,7,6,1,-1,4,2,3,-1,4,7,2,-1]
  normalPerVertex TRUE
  normal DEF NORM_26 Normal { vector [
  -0.96592583 0 0.25881905,-0.81811048 0 0.57506107,
  -0.42097392 0 0.90707274,-0.25881905 0 0.96592583,
  -0.25881905 0 0.96592583,-0.96592583 0 0.25881905,
  -0.90707274 0 0.42097392,-0.57506107 0 0.81811048] }
}
}
DEF SHAPE_27 Shape {
 appearance USE APP_2
 geometry DEF FACE_27 IndexedFaceSet {
  coord DEF COORD_27 Coordinate { point [
  -0.18208661 -0.073818898 0.0059055118,-0.18208661 -0.073818898 0,
  -0.13779528 -0.073818898 0.0059055118,-0.13858646 -0.073818898 0.0029527559,
  -0.14074803 -0.073818898 0.00079118856,-0.14370079 -0.073818898 0] }
 coordIndex [
  2,4,3,-1,2,5,4,-1,0,1,5,-1,0,5,2,-1]
  normalPerVertex TRUE
  normal DEF NORM_27 Normal { vector [
  0 -1 0,0 -1 0,
  0 -1 0,0 0 1,
  0 -1 0,0 -1 0] }
}
}
DEF SHAPE_28 Shape {
 appearance USE APP_2
 geometry DEF FACE_28 IndexedFaceSet {
  coord DEF COORD_28 Coordinate { point [
  -0.13779528 -0.073818898 0.0059055118,-0.13779528 0.073818898 0.0059055118,
  -0.13858646 -0.073818898 0.0029527559,-0.14074803 -0.073818898 0.00079118856,
  -0.14370079 -0.073818898 0,-0.14370079 0.073818898 0,
  -0.13858646 0.073818898 0.0029527559,-0.14074803 0.073818898 0.00079118856] }
 coordIndex [
  6,1,0,-1,6,0,2,-1,7,2,3,-1,7,6,2,-1,5,3,4,-1,5,7,3,-1]
  normalPerVertex TRUE
  normal DEF NORM_28 Normal { vector [
  0.96592583 0 -0.25881905,0.96592583 0 -0.25881905,
  0.81811048 0 -0.57506107,0.42097392 0 -0.90707274,
  0.25881905 0 -0.96592583,0.25881905 0 -0.96592583,
  0.90707274 0 -0.42097392,0.57506107 0 -0.81811048] }
}
}
DEF SHAPE_29 Shape {
 appearance USE APP_2
 geometry DEF FACE_29 IndexedFaceSet {
  coord DEF COORD_29 Coordinate { point [
  -0.13779528 0.073818898 0.0059055118,-0.18208661 0.073818898 0.0059055118,
  -0.18208661 0.073818898 0,-0.14370079 0.073818898 0,
  -0.13858646 0.073818898 0.0029527559,-0.14074803 0.073818898 0.00079118856] }
 coordIndex [
  3,2,1,-1,0,4,5,-1,0,5,3,-1,0,3,1,-1]
  normalPerVertex TRUE
  normal DEF NORM_29 Normal { vector [
  0 1 0,0 1 0,
  0 1 0,0 1 0,
  0 0 1,0 1 0] }
}
}
DEF SHAPE_30 Shape {
 appearance USE APP_2
 geometry DEF FACE_30 IndexedFaceSet {
  coord DEF COORD_30 Coordinate { point [
  -0.18208661 0.073818898 0.0059055118,-0.18208661 0.073818898 0,
  -0.18208661 0.098425197 0.0059055118,-0.18208661 0.098425197 0] }
 coordIndex [
  0,3,2,-1,0,1,3,-1]
  normalPerVertex TRUE
  normal DEF NORM_30 Normal { vector [
  1 0 0,1 0 0,
  1 0 0,1 0 0] }
}
}
DEF SHAPE_31 Shape {
 appearance USE APP_2
 geometry DEF FACE_31 IndexedFaceSet {
  coord DEF COORD_31 Coordinate { point [
  0.18208661 0.098425197 0.0059055118,0.18208661 0.073818898 0.0059055118,
  0.18208661 0.073818898 0,0.18208661 0.098425197 0] }
 coordIndex [
  0,2,1,-1,0,3,2,-1]
  normalPerVertex TRUE
  normal DEF NORM_31 Normal { vector [
  -1 0 0,-1 0 0,
  -1 0 0,-1 0 0] }
}
}
DEF SHAPE_32 Shape {
 appearance USE APP_2
 geometry DEF FACE_32 IndexedFaceSet {
  coord DEF COORD_32 Coordinate { point [
  0.18208661 0.073818898 0.0059055118,0.18208661 0.073818898 0,
  0.13779528 0.073818898 0.0059055118,0.14370079 0.073818898 0,
  0.14074803 0.073818898 0.00079118856,0.13858646 0.073818898 0.0029527559] }
 coordIndex [
  2,3,4,-1,2,4,5,-1,0,1,3,-1,0,3,2,-1]
  normalPerVertex TRUE
  normal DEF NORM_32 Normal { vector [
  0 1 0,0 1 0,
  0 1 0,0 1 0,
  0 1 0,0 0 1] }
}
}
DEF SHAPE_33 Shape {
 appearance USE APP_2
 geometry DEF FACE_33 IndexedFaceSet {
  coord DEF COORD_33 Coordinate { point [
  0.14370079 0.073818898 0,0.14074803 0.073818898 0.00079118856,
  0.13858646 0.073818898 0.0029527559,0.13779528 0.073818898 0.0059055118,
  0.14370079 -0.073818898 0,0.14074803 -0.073818898 0.00079118856,
  0.13858646 -0.073818898 0.0029527559,0.13779528 -0.073818898 0.0059055118] }
 coordIndex [
  1,0,4,-1,1,4,5,-1,2,5,6,-1,2,1,5,-1,3,6,7,-1,3,2,6,-1]
  normalPerVertex TRUE
  normal DEF NORM_33 Normal { vector [
  -0.25881905 0 -0.96592583,-0.42097392 0 -0.90707274,
  -0.81811048 0 -0.57506107,-0.96592583 0 -0.25881905,
  -0.25881905 0 -0.96592583,-0.57506107 0 -0.81811048,
  -0.90707274 0 -0.42097392,-0.96592583 0 -0.25881905] }
}
}
DEF SHAPE_34 Shape {
 appearance USE APP_2
 geometry DEF FACE_34 IndexedFaceSet {
  coord DEF COORD_34 Coordinate { point [
  0.13779528 -0.073818898 0.0059055118,0.18208661 -0.073818898 0.0059055118,
  0.18208661 -0.073818898 0,0.14370079 -0.073818898 0,
  0.14074803 -0.073818898 0.00079118856,0.13858646 -0.073818898 0.0029527559] }
 coordIndex [
  3,2,1,-1,0,4,3,-1,0,5,4,-1,0,3,1,-1]
  normalPerVertex TRUE
  normal DEF NORM_34 Normal { vector [
  0 -1 0,0 -1 0,
  0 -1 0,0 -1 0,
  0 -1 0,0 0 1] }
}
}
DEF SHAPE_35 Shape {
 appearance USE APP_2
 geometry DEF FACE_35 IndexedFaceSet {
  coord DEF COORD_35 Coordinate { point [
  0.18208661 -0.073818898 0.0059055118,0.18208661 -0.073818898 0,
  0.18208661 -0.098425197 0.0059055118,0.18208661 -0.098425197 0] }
 coordIndex [
  0,3,2,-1,0,1,3,-1]
  normalPerVertex TRUE
  normal DEF NORM_35 Normal { vector [
  -1 0 0,-1 0 0,
  -1 0 0,-1 0 0] }
}
}
DEF SHAPE_36 Shape {
 appearance DEF APP_3 Appearance {
  material Material {
   ambientIntensity 0.16928145
   diffuseColor 0.34 0.68000001 0.44499999
   emissiveColor 0 0 0
   shininess 0.1
   specularColor 0.12 0.12 0.12
   transparency 0
} }
 geometry DEF FACE_36 IndexedFaceSet {
  coord DEF COORD_36 Coordinate { point [
  0.068190977 0.078740157 0.0029527559,0.068190977 0.078740157 0.0059055118,
  0.068190977 -0.078740157 0.0059055118,0.068190977 -0.078740157 0.0029527559] }
 coordIndex [
  3,0,1,-1,3,1,2,-1]
  normalPerVertex TRUE
  normal DEF NORM_36 Normal { vector [
  1 0 0,1 0 0,
  1 0 0,1 0 0] }
}
}
DEF SHAPE_37 Shape {
 appearance USE APP_3
 geometry DEF FACE_37 IndexedFaceSet {
  coord DEF COORD_37 Coordinate { point [
  -0.068190977 0 0.0029527559,-0.068190977 0 0.0059055118,
  0.068190977 0.078740157 0.0059055118,0.068190977 0.078740157 0.0029527559] }
 coordIndex [
  3,0,1,-1,3,1,2,-1]
  normalPerVertex TRUE
  normal DEF NORM_37 Normal { vector [
  -0.5 0.8660254 0,-0.5 0.8660254 0,
  -0.5 0.8660254 0,-0.5 0.8660254 0] }
}
}
DEF SHAPE_38 Shape {
 appearance USE APP_3
 geometry DEF FACE_38 IndexedFaceSet {
  coord DEF COORD_38 Coordinate { point [
  0.068190977 -0.078740157 0.0029527559,0.068190977 -0.078740157 0.0059055118,
  -0.068190977 0 0.0059055118,-0.068190977 0 0.0029527559] }
 coordIndex [
  3,0,1,-1,3,1,2,-1]
  normalPerVertex TRUE
  normal DEF NORM_38 Normal { vector [
  -0.5 -0.8660254 0,-0.5 -0.8660254 0,
  -0.5 -0.8660254 0,-0.5 -0.8660254 0] }
}
}
DEF SHAPE_39 Shape {
 appearance USE APP_2
 geometry DEF FACE_39 IndexedFaceSet {
  coord DEF COORD_39 Coordinate { point [
  0.18208661 0.098425197 0,0.19094488 0.098425197 0,
  0.18208661 0.073818898 0,0.14370079 0.073818898 0,
  0.14370079 -0.073818898 0,0.18208661 -0.073818898 0,
  0.18208661 -0.098425197 0,0.19094488 -0.098425197 0] }
 coordIndex [
  5,7,6,-1,2,4,3,-1,2,5,4,-1,1,2,0,-1,7,2,1,-1,7,5,2,-1]
  normalPerVertex TRUE
  normal DEF NORM_39 Normal { vector [
  0 0 -1,0 0 -1,
  0 0 -1,0 0 -1,
  0 0 -1,0 0 -1,
  0 0 -1,0 0 -1] }
}
}
DEF SHAPE_40 Shape {
 appearance USE APP_2
 geometry DEF FACE_40 IndexedFaceSet {
  coord DEF COORD_40 Coordinate { point [
  0.19685039 -0.098425197 0.0059055118,0.19605921 -0.098425197 0.0029527559,
  0.19389764 -0.098425197 0.00079118856,0.19094488 -0.098425197 0,
  0.19094488 0.098425197 0,0.19685039 0.098425197 0.0059055118,
  0.19605921 0.098425197 0.0029527559,0.19389764 0.098425197 0.00079118856] }
 coordIndex [
  6,0,1,-1,6,5,0,-1,7,1,2,-1,7,6,1,-1,4,2,3,-1,4,7,2,-1]
  normalPerVertex TRUE
  normal DEF NORM_40 Normal { vector [
  0.96592583 0 -0.25881905,0.81811048 0 -0.57506107,
  0.42097392 0 -0.90707274,0.25881905 0 -0.96592583,
  0.25881905 0 -0.96592583,0.96592583 0 -0.25881905,
  0.90707274 0 -0.42097392,0.57506107 0 -0.81811048] }
}
}
DEF SHAPE_41 Shape {
 appearance USE APP_2
 geometry DEF FACE_41 IndexedFaceSet {
  coord DEF COORD_41 Coordinate { point [
  0.19685039 -0.098425197 0.0059055118,0.19685039 -0.098425197 0.072834646,
  0.19685039 0.098425197 0.0059055118,0.19685039 0.098425197 0.072834646] }
 coordIndex [
  1,0,2,-1,1,2,3,-1]
  normalPerVertex TRUE
  normal DEF NORM_41 Normal { vector [
  1 0 0,1 0 0,
  1 0 0,1 0 0] }
}
}
DEF SHAPE_42 Shape {
 appearance USE APP_2
 geometry DEF FACE_42 IndexedFaceSet {
  coord DEF COORD_42 Coordinate { point [
  0.19685039 -0.098425197 0.072834646,0.19685039 0.098425197 0.072834646,
  0.19605921 0.098425197 0.075787402,0.19389764 0.098425197 0.077948969,
  0.19094488 0.098425197 0.078740157,0.19094488 -0.098425197 0.078740157,
  0.19605921 -0.098425197 0.075787402,0.19389764 -0.098425197 0.077948969] }
 coordIndex [
  3,4,5,-1,3,5,7,-1,2,7,6,-1,2,3,7,-1,1,6,0,-1,1,2,6,-1]
  normalPerVertex TRUE
  normal DEF NORM_42 Normal { vector [
  0.96592583 0 0.25881905,0.96592583 0 0.25881905,
  0.81811048 0 0.57506107,0.42097392 0 0.90707274,
  0.25881905 0 0.96592583,0.25881905 0 0.96592583,
  0.90707274 0 0.42097392,0.57506107 0 0.81811048] }
}
}
DEF SHAPE_43 Shape {
 appearance USE APP_2
 geometry DEF FACE_43 IndexedFaceSet {
  coord DEF COORD_43 Coordinate { point [
  0.18208661 0.098425197 0.078740157,0.19094488 0.098425197 0.078740157,
  0.18208661 0.073818898 0.078740157,0.14370079 0.073818898 0.078740157,
  0.14370079 -0.073818898 0.078740157,0.18208661 -0.073818898 0.078740157,
  0.18208661 -0.098425197 0.078740157,0.19094488 -0.098425197 0.078740157] }
 coordIndex [
  5,6,7,-1,2,3,4,-1,2,4,5,-1,1,0,2,-1,7,1,2,-1,7,2,5,-1]
  normalPerVertex TRUE
  normal DEF NORM_43 Normal { vector [
  0 0 1,0 0 1,
  0 0 1,0 0 1,
  0 0 1,0 0 1,
  0 0 1,0 0 1] }
}
}
DEF SHAPE_44 Shape {
 appearance USE APP_2
 geometry DEF FACE_44 IndexedFaceSet {
  coord DEF COORD_44 Coordinate { point [
  0.18208661 -0.073818898 0.078740157,0.18208661 -0.073818898 0.072834646,
  0.18208661 -0.098425197 0.078740157,0.18208661 -0.098425197 0.072834646] }
 coordIndex [
  0,3,2,-1,0,1,3,-1]
  normalPerVertex TRUE
  normal DEF NORM_44 Normal { vector [
  -1 0 0,-1 0 0,
  -1 0 0,-1 0 0] }
}
}
DEF SHAPE_45 Shape {
 appearance USE APP_2
 geometry DEF FACE_45 IndexedFaceSet {
  coord DEF COORD_45 Coordinate { point [
  0.18208661 -0.073818898 0.078740157,0.14370079 -0.073818898 0.078740157,
  0.18208661 -0.073818898 0.072834646,0.13779528 -0.073818898 0.072834646,
  0.13858646 -0.073818898 0.075787402,0.14074803 -0.073818898 0.077948969] }
 coordIndex [
  1,2,0,-1,3,2,1,-1,4,1,5,-1,4,3,1,-1]
  normalPerVertex TRUE
  normal DEF NORM_45 Normal { vector [
  0 -1 0,0 -1 0,
  0 -1 0,0 -1 0,
  0 -1 0,0 0 1] }
}
}
DEF SHAPE_46 Shape {
 appearance USE APP_2
 geometry DEF FACE_46 IndexedFaceSet {
  coord DEF COORD_46 Coordinate { point [
  0.18208661 0.073818898 0.078740157,0.18208661 0.098425197 0.078740157,
  0.18208661 0.073818898 0.072834646,0.18208661 0.098425197 0.072834646] }
 coordIndex [
  1,2,0,-1,1,3,2,-1]
  normalPerVertex TRUE
  normal DEF NORM_46 Normal { vector [
  -1 0 0,-1 0 0,
  -1 0 0,-1 0 0] }
}
}
DEF SHAPE_47 Shape {
 appearance USE APP_2
 geometry DEF FACE_47 IndexedFaceSet {
  coord DEF COORD_47 Coordinate { point [
  0.18208661 0.073818898 0.078740157,0.18208661 0.073818898 0.072834646,
  0.14370079 0.073818898 0.078740157,0.13779528 0.073818898 0.072834646,
  0.13858646 0.073818898 0.075787402,0.14074803 0.073818898 0.077948969] }
 coordIndex [
  2,3,4,-1,2,4,5,-1,1,3,2,-1,0,1,2,-1]
  normalPerVertex TRUE
  normal DEF NORM_47 Normal { vector [
  0 1 0,0 1 0,
  0 1 0,0 1 0,
  0 1 0,0 0 1] }
}
}
DEF SHAPE_48 Shape {
 appearance USE APP_2
 geometry DEF FACE_48 IndexedFaceSet {
  coord DEF COORD_48 Coordinate { point [
  -0.19094488 0.098425197 0,-0.18208661 0.098425197 0,
  -0.19685039 0.098425197 0.0059055118,-0.19605921 0.098425197 0.0029527559,
  -0.19389764 0.098425197 0.00079118856,-0.19685039 0.098425197 0.072834646,
  -0.19605921 0.098425197 0.075787402,-0.19389764 0.098425197 0.077948969,
  -0.19094488 0.098425197 0.078740157,-0.18208661 0.098425197 0.078740157,
  -0.18208661 0.098425197 0.072834646,-0.19094488 0.098425197 0.072834646,
  -0.19094488 0.098425197 0.0059055118,-0.18208661 0.098425197 0.0059055118] }
 coordIndex [
  12,3,2,-1,12,4,3,-1,12,0,4,-1,13,1,0,-1,13,0,12,-1,11,2,5,-1,11,5,6,-1,11,12,2,-1,
  7,11,6,-1,8,11,7,-1,9,10,11,-1,9,11,8,-1]
  normalPerVertex TRUE
  normal DEF NORM_48 Normal { vector [
  0 1 0,0 1 0,
  0 1 0,0 1 0,
  0 1 0,0 1 0,
  0 1 0,0 1 0,
  0 1 0,0 1 0,
  0 1 0,0 1 0,
  0 1 0,0 1 0] }
}
}
DEF SHAPE_49 Shape {
 appearance USE APP_2
 geometry DEF FACE_49 IndexedFaceSet {
  coord DEF COORD_49 Coordinate { point [
  0.18208661 0.098425197 0,0.19094488 0.098425197 0,
  0.18208661 0.098425197 0.0059055118,0.19094488 0.098425197 0.0059055118,
  0.19094488 0.098425197 0.072834646,0.18208661 0.098425197 0.072834646,
  0.18208661 0.098425197 0.078740157,0.19094488 0.098425197 0.078740157,
  0.19685039 0.098425197 0.072834646,0.19605921 0.098425197 0.075787402,
  0.19389764 0.098425197 0.077948969,0.19685039 0.098425197 0.0059055118,
  0.19605921 0.098425197 0.0029527559,0.19389764 0.098425197 0.00079118856] }
 coordIndex [
  3,1,0,-1,3,0,2,-1,3,13,1,-1,12,13,3,-1,11,12,3,-1,8,3,4,-1,8,11,3,-1,7,4,5,-1,
  7,5,6,-1,9,8,4,-1,10,4,7,-1,10,9,4,-1]
  normalPerVertex TRUE
  normal DEF NORM_49 Normal { vector [
  0 1 0,0 1 0,
  0 1 0,0 1 0,
  0 1 0,0 1 0,
  0 1 0,0 1 0,
  0 1 0,0 1 0,
  0 1 0,0 1 0,
  0 1 0,0 1 0] }
}
}
DEF SHAPE_50 Shape {
 appearance USE APP_3
 geometry DEF FACE_50 IndexedFaceSet {
  coord DEF COORD_50 Coordinate { point [
  -0.068190977 0 0.0029527559,0.068190977 0.078740157 0.0029527559,
  0.068190977 -0.078740157 0.0029527559] }
 coordIndex [
  0,1,2,-1]
  normalPerVertex TRUE
  normal DEF NORM_50 Normal { vector [
  0 0 -1,0 0 -1,
  0 0 -1] }
}
}
] }
] }
] }
